<?xml version="1.0" standalone="no"?>
<!DOCTYPE svg PUBLIC "-//W3C//DTD SVG 20010904//EN"
 "http://www.w3.org/TR/2001/REC-SVG-20010904/DTD/svg10.dtd">
<svg version="1.0" xmlns="http://www.w3.org/2000/svg"
 width="256.000000pt" height="256.000000pt" viewBox="0 0 256.000000 256.000000"
 preserveAspectRatio="xMidYMid meet">
<metadata>
Created by potrace 1.14, written by Peter Selinger 2001-2017
</metadata>
<g transform="translate(0.000000,256.000000) scale(0.100000,-0.100000)"
fill="#000000" stroke="none">
<path d="M240 2496 c0 -2 12 -24 26 -50 54 -96 54 -94 54 -866 0 -773 1 -791
55 -908 71 -155 209 -267 447 -361 122 -48 249 -115 354 -186 97 -66 97 -66
118 -47 71 66 244 160 457 250 250 105 387 240 445 437 16 54 18 135 23 825
l6 765 33 69 c17 37 32 70 32 72 0 2 -461 4 -1025 4 -564 0 -1025 -2 -1025 -4z
m1870 -451 l0 -355 -845 0 -845 0 0 355 0 355 845 0 845 0 0 -355z m-1481
-495 c85 -21 314 -101 363 -126 42 -21 53 -18 34 11 -9 14 -14 31 -10 37 4 6
3 8 -3 5 -9 -5 -53 43 -53 58 0 10 62 4 202 -20 163 -28 340 -77 493 -136 102
-39 135 -65 119 -91 -4 -7 -3 -8 4 -4 7 4 17 -3 23 -18 7 -14 48 -53 93 -87
44 -34 107 -85 139 -112 57 -49 58 -50 39 -69 -23 -23 -81 -16 -62 8 9 10 7
11 -13 1 -24 -11 -24 -11 -6 -42 56 -91 -18 -179 -151 -179 -81 0 -164 35
-206 88 -35 44 -44 45 -44 6 0 -32 21 -82 48 -113 23 -26 10 -30 -55 -17 -76
16 -184 6 -241 -23 -25 -12 -59 -39 -77 -59 -17 -21 -35 -38 -38 -38 -9 0
-125 117 -143 145 -19 29 -35 22 -54 -25 -7 -17 -16 -30 -21 -30 -31 0 -157
155 -183 224 -11 31 -25 7 -43 -78 -28 -130 3 -262 88 -369 17 -20 28 -41 24
-46 -3 -5 0 -13 6 -17 8 -5 9 -3 4 7 -4 8 7 1 26 -16 19 -16 39 -34 44 -38 12
-10 -5 -3 -147 56 -58 24 -135 65 -171 90 -70 50 -132 120 -122 137 4 6 1 9
-6 8 -15 -4 -56 91 -69 163 -6 29 -10 149 -10 268 l0 216 20 -30 c11 -16 17
-37 14 -45 -3 -8 -2 -11 2 -7 4 3 34 -18 66 -49 54 -49 154 -111 164 -101 2 2
-13 29 -35 59 -56 80 -103 169 -97 184 3 8 0 13 -6 11 -13 -3 -55 119 -64 186
-6 45 -5 49 12 44 10 -3 57 -15 103 -27z m1233 -881 c29 -6 55 -13 57 -15 8
-7 -42 -74 -85 -114 -44 -40 -169 -108 -180 -97 -3 3 4 23 15 46 l21 40 -22
14 c-13 8 -45 27 -73 42 l-50 29 45 20 c98 43 182 54 272 35z"/>
<path d="M490 2306 c0 -3 11 -26 25 -52 24 -46 25 -52 25 -265 l0 -219 75 0
75 0 0 148 0 147 83 -147 82 -148 93 0 92 0 0 270 0 270 -101 0 c-55 0 -99 -3
-97 -7 46 -89 49 -103 46 -204 l-3 -102 -54 94 c-30 52 -70 122 -89 157 l-36
62 -108 0 c-59 0 -108 -2 -108 -4z"/>
<path d="M1097 2268 l28 -41 3 -229 3 -228 79 0 79 0 3 93 3 92 96 3 96 3 15
54 c8 30 13 57 10 60 -3 3 -54 5 -114 5 l-108 0 0 55 0 55 133 0 134 0 12 43
c7 23 15 50 17 60 5 16 -12 17 -255 17 l-261 0 27 -42z"/>
<path d="M1646 2293 c25 -58 18 -90 -100 -475 l-15 -48 79 0 78 0 14 43 13 42
85 0 85 0 9 -42 9 -43 82 0 83 0 -55 218 c-52 208 -59 259 -39 305 8 16 -4 17
-164 17 -160 0 -172 -1 -164 -17z m188 -195 c8 -42 18 -88 22 -102 6 -26 5
-26 -50 -26 -31 0 -56 3 -56 8 -1 25 56 219 61 209 4 -7 14 -47 23 -89z"/>
<path d="M601 1453 c19 -55 78 -122 129 -148 77 -39 244 -32 179 7 -43 27
-306 168 -312 168 -3 0 -2 -12 4 -27z"/>
<path d="M1455 1295 c33 -30 59 -60 57 -66 -1 -6 2 -8 8 -4 13 8 101 -75 93
-89 -3 -6 -3 -8 2 -4 4 4 13 4 19 -1 7 -6 33 -5 66 0 78 14 84 17 71 33 -6 7
-9 15 -6 18 6 6 -19 10 -73 10 -40 0 -43 2 -38 23 4 17 0 27 -17 37 -30 19
-216 98 -230 98 -7 0 15 -25 48 -55z"/>
<path d="M1041 1206 c3 -3 48 -17 100 -30 152 -40 296 -93 424 -156 66 -33
147 -67 180 -76 33 -9 66 -19 73 -21 6 -3 12 -1 12 4 0 13 -171 114 -255 151
-91 39 -207 75 -325 100 -105 23 -218 38 -209 28z"/>
<path d="M755 1130 c11 -4 79 -20 150 -35 166 -35 372 -87 503 -127 56 -17
104 -29 106 -27 2 2 6 13 10 25 6 19 -2 24 -81 49 -175 56 -314 87 -487 110
-121 17 -234 19 -201 5z"/>
<path d="M1030 931 c19 -5 89 -17 155 -26 66 -9 159 -25 207 -36 116 -25 120
-25 116 9 -3 25 -7 28 -78 39 -89 15 -453 27 -400 14z"/>
</g>
</svg>
